<svg width="245" height="245" viewBox="0 0 245 245" fill="none" xmlns="http://www.w3.org/2000/svg">
<path d="M191.665 112.7C197.167 108.164 201.669 103.707 204.714 99.5629C221.317 76.9256 216.885 44.5104 194.814 27.1612C172.744 9.81207 141.393 14.0989 124.791 36.7361C120.854 42.1034 117.073 50.108 113.641 59.6098C107.785 51.3842 101.993 44.6825 96.7599 40.569C74.6896 23.2199 43.339 27.5067 26.7364 50.1439C10.1337 72.7812 14.5661 105.196 36.6364 122.546C40.6831 125.727 46.216 128.804 52.734 131.698C47.232 136.234 42.7293 140.691 39.6843 144.835C23.0816 167.472 27.514 199.888 49.5844 217.237C71.6547 234.586 103.005 230.299 119.608 207.662C123.544 202.295 127.326 194.29 130.758 184.788C136.613 193.014 142.405 199.709 147.639 203.829C169.709 221.178 201.06 216.891 217.662 194.254C234.265 171.617 229.833 139.202 207.762 121.853C203.716 118.671 198.183 115.594 191.665 112.7Z" fill="#EEE7E2"/>
</svg>
