<svg width="245" height="245" viewBox="0 0 245 245" fill="none" xmlns="http://www.w3.org/2000/svg">
<path d="M229.078 128.026C229.773 114.762 210.556 102.085 181.071 93.9128C186.028 82.9147 186.836 73.9276 182.361 68.9578C177.887 63.988 168.673 63.8475 157.043 67.7527C152.04 37.2103 141.381 16.492 128.024 15.792C114.668 15.092 101.807 34.7228 93.6407 64.7608C82.1111 59.3226 72.6593 58.305 67.5188 62.9391C62.5248 67.4359 62.4077 76.5347 66.2592 88.0815C36.5421 93.1859 16.4815 103.706 15.7927 116.848C15.104 129.991 34.2578 142.752 63.6791 150.932C57.9395 162.789 56.7731 172.535 61.5 177.785C66.1831 182.986 75.8496 182.895 88.0715 178.556C93.1682 208.309 103.698 228.394 116.846 229.083C129.994 229.772 142.465 211.043 150.651 182.184C161.987 187.444 171.263 188.377 176.343 183.803C181.568 179.098 181.451 169.366 177.054 157.06C207.63 152.064 228.383 141.395 229.083 128.027L229.078 128.026Z" fill="#EEE7E2"/>
</svg>
