<svg width="34" height="34" viewBox="0 0 34 34" fill="none" xmlns="http://www.w3.org/2000/svg">
<path d="M28.3333 18.4166C27.5509 18.4166 26.9167 17.7823 26.9167 16.9999C26.9167 16.2175 27.5509 15.5833 28.3333 15.5833C29.1157 15.5833 29.75 16.2175 29.75 16.9999C29.75 17.7823 29.1157 18.4166 28.3333 18.4166Z" fill="#301400" fill-opacity="0.8"/>
<path d="M22.809 15.5833H5.66732C4.95898 15.5833 4.39232 16.1499 4.39232 16.8583V16.9999C4.39232 17.7083 4.95898 18.2749 5.66732 18.2749H22.809C23.5173 18.4166 24.084 17.8499 24.084 17.1416V16.9999C24.084 16.1499 23.5173 15.5833 22.809 15.5833Z" fill="#301400" fill-opacity="0.8"/>
<path d="M28.475 22.6667H5.66666C4.95833 22.6667 4.39166 23.2334 4.39166 23.9417V24.0834C4.39166 24.7917 4.95833 25.3584 5.66666 25.3584H28.475C29.1833 25.5001 29.75 24.9334 29.75 24.2251V24.0834C29.75 23.2334 29.1833 22.6667 28.475 22.6667Z" fill="#301400" fill-opacity="0.8"/>
<path d="M28.475 8.5H5.66667C4.81667 8.5 4.25 9.06667 4.25 9.775V9.91667C4.25 10.7667 4.81667 11.3333 5.525 11.3333H28.475C29.1833 11.3333 29.75 10.7667 29.75 10.0583V9.775C29.75 9.06667 29.1833 8.5 28.475 8.5Z" fill="#301400" fill-opacity="0.8"/>
</svg>
