<svg width="87" height="34" viewBox="0 0 87 34" fill="none" xmlns="http://www.w3.org/2000/svg">
<path d="M38.0133 8.31989C35.4094 4.73165 31.2496 2.38184 26.4547 2.38184C18.4844 2.38184 12.0064 8.85969 12.0064 16.83C12.0064 24.8004 18.4844 31.2783 26.4547 31.2783C31.8212 31.2783 36.8067 28.4522 39.5693 23.8478L43.7926 16.83L47.9842 9.81225C50.7468 5.20787 55.7323 2.38184 61.0988 2.38184C69.0691 2.38184 75.547 8.85969 75.547 16.83C75.547 24.8004 69.0691 31.2783 61.0988 31.2783C56.3356 31.2783 52.1757 28.9284 49.5401 25.3402" stroke="#9C816E" stroke-opacity="0.32" stroke-width="4.76316" stroke-linecap="round" stroke-linejoin="round"/>
<path d="M69.0909 27.6766C68.7587 27.6766 68.4265 27.6473 68.0943 27.5886C67.7621 27.53 67.4006 27.4616 67.0098 27.3835L67.2736 24.0712C67.5472 24.1494 67.8403 24.1885 68.1529 24.1885C68.9737 24.1885 69.6283 23.8563 70.1168 23.1919C70.6053 22.5079 70.9571 21.5113 71.172 20.2021C71.387 18.8928 71.5335 17.2807 71.6117 15.3656L71.9048 6.86523H87.0004V27.3835H83.2485V9.15155L84.1278 10.0895H74.367L75.1877 9.12224L74.9826 15.2191C74.9239 17.2514 74.7872 19.0394 74.5722 20.5831C74.3572 22.1269 74.025 23.4264 73.5756 24.4816C73.1457 25.5173 72.5692 26.3087 71.8462 26.8558C71.1232 27.403 70.2047 27.6766 69.0909 27.6766Z" fill="white"/>
<path d="M62.0909 27.3835L55.144 17.3881L58.2217 15.4829L66.3997 27.3835H62.0909ZM48.5195 27.3835V6.86523H52.2714V27.3835H48.5195ZM51.1283 18.7365V15.4536H58.0458V18.7365H51.1283ZM58.5735 17.564L55.0854 17.095L62.0909 6.86523H66.1359L58.5735 17.564Z" fill="white"/>
<path d="M24.4456 27.3835V6.86523H28.1975V21.4332L39.2187 6.86523H42.7654V27.3835H39.0135V12.8448L27.9923 27.3835H24.4456Z" fill="white"/>
<path d="M0 27.3835V6.86523H3.7519V24.1592H14.0989V6.86523H17.8802V27.3835H0ZM17.4112 31.8975V26.4455L18.2612 27.3835H14.0989V24.1592H20.9286V31.8975H17.4112Z" fill="white"/>
</svg>
