<svg width="87" height="34" viewBox="0 0 87 34" fill="none" xmlns="http://www.w3.org/2000/svg">
<path d="M38.0133 8.30323C35.4094 4.7249 31.2496 2.38158 26.4547 2.38158C18.4844 2.38158 12.0064 8.84154 12.0064 16.7899C12.0064 24.7382 18.4844 31.1982 26.4547 31.1982C31.8212 31.1982 36.8067 28.3799 39.5693 23.7883L43.7926 16.7899L47.9842 9.79147C50.7468 5.1998 55.7323 2.38158 61.0988 2.38158C69.0691 2.38158 75.547 8.84154 75.547 16.7899C75.547 24.7382 69.0691 31.1982 61.0988 31.1982C56.3356 31.1982 52.1758 28.8549 49.5401 25.2765" stroke="#E9E1DC" stroke-width="4.76316" stroke-linecap="round" stroke-linejoin="round"/>
<path d="M69.0909 27.6052C68.7587 27.6052 68.4265 27.5759 68.0943 27.5175C67.7621 27.459 67.4006 27.3908 67.0098 27.3129L67.2736 24.0098C67.5472 24.0877 67.8403 24.1267 68.1529 24.1267C68.9737 24.1267 69.6283 23.7954 70.1168 23.1329C70.6053 22.4508 70.9571 21.457 71.172 20.1513C71.387 18.8457 71.5335 17.238 71.6117 15.3282L71.9048 6.85132H87.0004V27.3129H83.2485V9.13132L84.1278 10.0667H74.367L75.1877 9.10209L74.9826 15.1821C74.9239 17.2088 74.7872 18.9918 74.5722 20.5313C74.3572 22.0708 74.025 23.3667 73.5756 24.419C73.1457 25.4518 72.5692 26.2411 71.8462 26.7867C71.1232 27.3323 70.2047 27.6052 69.0909 27.6052Z" fill="#301400" fill-opacity="0.8"/>
<path d="M62.0909 27.3128L55.144 17.3452L58.2217 15.4452L66.3997 27.3128H62.0909ZM48.5195 27.3128V6.85131H52.2714V27.3128H48.5195ZM51.1283 18.6898V15.4159H58.0458V18.6898H51.1283ZM58.5735 17.5205L55.0854 17.0528L62.0909 6.85131H66.1359L58.5735 17.5205Z" fill="#301400" fill-opacity="0.8"/>
<path d="M24.4456 27.3129V6.85132H28.1975V21.379L39.2187 6.85132H42.7654V27.3129H39.0135V12.8144L27.9923 27.3129H24.4456Z" fill="#301400" fill-opacity="0.8"/>
<path d="M0 27.3128V6.85131H3.7519V24.0975H14.0989V6.85131H17.8802V27.3128H0ZM17.4112 31.8144V26.3775L18.2612 27.3128H14.0989V24.0975H20.9286V31.8144H17.4112Z" fill="#301400" fill-opacity="0.8"/>
</svg>
